<?xml version="1.0" standalone="no"?>
<!DOCTYPE svg PUBLIC "-//W3C//DTD SVG 20010904//EN"
 "http://www.w3.org/TR/2001/REC-SVG-20010904/DTD/svg10.dtd">
<svg version="1.0" xmlns="http://www.w3.org/2000/svg"
 width="1024.000000pt" height="1024.000000pt" viewBox="0 0 1024.000000 1024.000000"
 preserveAspectRatio="xMidYMid meet">

<g transform="translate(0.000000,1024.000000) scale(0.100000,-0.100000)"
fill="#000000" stroke="none">
<path d="M2228 6593 c-42 -27 -50 -57 -49 -190 l2 -123 -113 0 c-80 0 -133 -6
-180 -18 -117 -33 -217 -114 -275 -224 l-28 -53 -3 -1034 c-2 -1022 -2 -1036
18 -1097 38 -113 131 -212 240 -257 l55 -22 1110 -3 c815 -2 1125 0 1165 8
166 35 285 162 311 332 6 39 9 453 7 1063 -3 1128 3 1037 -83 1148 -89 113
-198 157 -386 157 l-119 0 0 120 c0 135 -10 169 -60 195 -38 19 -65 19 -100
-2 -44 -25 -53 -57 -58 -190 l-4 -123 -644 0 -644 0 0 120 c0 135 -10 169 -60
195 -37 19 -68 19 -102 -2z m120 -28 c26 -25 27 -28 31 -155 2 -109 6 -132 20
-139 9 -4 302 -7 651 -5 l635 2 7 33 c4 19 5 68 3 109 -6 99 7 145 48 171 40
24 82 19 117 -16 24 -24 25 -32 28 -153 2 -70 8 -131 13 -137 5 -5 60 -8 122
-7 91 2 124 -2 177 -19 36 -12 72 -28 81 -35 8 -8 20 -14 25 -14 19 0 107 -98
99 -111 -5 -8 -4 -10 3 -5 16 10 48 -57 62 -129 8 -44 10 -336 8 -1060 -3
-896 -5 -1005 -20 -1048 -25 -74 -73 -140 -134 -185 -111 -82 -23 -76 -1259
-80 -817 -2 -1114 0 -1154 9 -69 14 -154 60 -204 107 -21 21 -55 71 -75 111
l-37 75 0 1045 0 1046 23 50 c32 68 82 126 144 167 84 56 146 72 285 74 67 1
127 5 132 9 7 4 11 54 11 128 0 132 9 163 50 185 33 17 74 8 108 -23z"/>
<path d="M2485 6070 l-100 -5 -5 -110 c-3 -60 -11 -120 -17 -132 -20 -33 -74
-47 -116 -30 -19 8 -38 21 -43 28 -5 8 -11 66 -14 129 l-5 115 -120 3 c-114 2
-123 1 -175 -25 -45 -23 -59 -37 -80 -78 l-25 -50 -3 -965 c-2 -609 1 -982 7
-1011 14 -64 49 -113 96 -135 38 -18 84 -19 1120 -22 751 -2 1096 1 1133 9 29
6 66 22 82 36 66 55 62 -12 64 1060 0 535 -2 973 -6 973 -4 0 -9 -442 -10
-982 l-3 -983 -22 -31 c-13 -17 -40 -40 -60 -50 -36 -18 -83 -19 -1138 -19
-1185 0 -1146 -2 -1197 53 -60 63 -58 34 -58 1071 0 1019 0 1010 51 1075 37
47 73 58 211 64 l129 5 -2 -111 c-1 -93 2 -114 17 -136 42 -56 123 -59 168 -5
24 29 26 37 26 140 l0 109 644 0 644 0 4 -107 c4 -119 13 -142 64 -169 43 -23
95 -12 128 27 24 29 26 37 26 141 l0 110 128 -4 c111 -4 134 -8 165 -27 39
-24 76 -89 78 -137 1 -19 3 -23 6 -10 8 30 -17 103 -46 130 -51 49 -121 62
-303 57 l-38 -1 0 -105 c0 -124 -12 -158 -64 -175 -42 -14 -98 6 -117 42 -7
13 -14 68 -16 127 -1 57 -5 106 -7 108 -6 6 -1085 9 -1201 3z"/>
<path d="M2834 5619 c-67 -19 -69 -27 -72 -275 l-3 -224 -212 0 c-230 -1 -243
-3 -278 -56 -17 -26 -19 -48 -19 -236 0 -186 7 -243 24 -206 3 7 3 3 0 -9 -4
-16 2 -26 20 -38 35 -23 38 -23 264 -24 l203 -1 -1 -204 c-1 -216 1 -230 46
-265 25 -20 39 -21 228 -21 284 0 276 -9 276 290 l0 200 204 0 c195 0 204 1
237 23 57 38 60 51 57 274 l-3 203 -33 32 -32 33 -215 3 -215 3 0 200 c0 306
0 306 -268 307 -97 0 -191 -4 -208 -9z m184 -16 c-32 -2 -86 -2 -120 0 -35 2
-9 3 57 3 66 0 94 -1 63 -3z m169 0 c-20 -2 -52 -2 -70 0 -17 2 0 4 38 4 39 0
53 -2 32 -4z m-383 -28 c-9 -14 -18 -25 -21 -25 -5 0 5 18 20 38 17 22 18 13
1 -13z m466 0 c7 -9 11 -17 8 -20 -2 -2 -12 4 -21 15 -9 11 -13 20 -8 20 5 0
14 -7 21 -15z m-493 -72 c-3 -10 -5 -4 -5 12 0 17 2 24 5 18 2 -7 2 -21 0 -30z
m513 27 c0 -5 -5 -10 -11 -10 -5 0 -7 5 -4 10 3 6 8 10 11 10 2 0 4 -4 4 -10z
m-513 -127 c-2 -16 -4 -3 -4 27 0 30 2 43 4 28 2 -16 2 -40 0 -55z m0 -100
c-3 -10 -5 -2 -5 17 0 19 2 27 5 18 2 -10 2 -26 0 -35z m0 -150 c-2 -21 -4 -6
-4 32 0 39 2 55 4 38 2 -18 2 -50 0 -70z m963 -63 c18 -12 2 -12 -25 0 -13 6
-15 9 -5 9 8 0 22 -4 30 -9z m17 -42 c-3 -8 -6 -5 -6 6 -1 11 2 17 5 13 3 -3
4 -12 1 -19z m-1490 -300 c-1 -51 -3 -12 -3 87 0 99 2 141 3 93 2 -48 2 -129
0 -180z m1523 -117 c0 -6 -4 -13 -10 -16 -5 -3 -10 1 -10 9 0 9 5 16 10 16 6
0 10 -4 10 -9z m-63 -57 c-3 -3 -12 -4 -19 -1 -8 3 -5 6 6 6 11 1 17 -2 13 -5z
m-931 -26 c4 -7 3 -8 -4 -4 -8 5 -13 -7 -14 -41 -1 -45 -2 -46 -5 -9 -6 53 6
82 23 54z m-19 -160 c-3 -8 -6 -5 -6 6 -1 11 2 17 5 13 3 -3 4 -12 1 -19z m0
-160 c-2 -29 -3 -8 -3 47 0 55 1 79 3 53 2 -26 2 -71 0 -100z m510 -90 c-3 -8
-6 -5 -6 6 -1 11 2 17 5 13 3 -3 4 -12 1 -19z m-329 -65 c-21 -2 -55 -2 -75 0
-21 2 -4 4 37 4 41 0 58 -2 38 -4z m69 1 c-3 -3 -12 -4 -19 -1 -8 3 -5 6 6 6
11 1 17 -2 13 -5z m56 -1 c-7 -2 -19 -2 -25 0 -7 3 -2 5 12 5 14 0 19 -2 13
-5z m110 0 c-13 -2 -35 -2 -50 0 -16 2 -5 4 22 4 28 0 40 -2 28 -4z"/>
<path d="M5030 5195 l0 -915 178 2 177 3 -3 388 -4 387 411 0 411 0 2 -387 3
-388 175 0 175 0 3 40 c2 22 1 433 -3 913 l-7 872 -174 0 -174 0 0 -365 0
-365 -405 0 -405 0 0 365 0 365 -180 0 -180 0 0 -915z"/>
<path d="M6836 6102 c-3 -6 -3 -419 1 -918 l6 -907 386 6 c212 3 397 8 411 11
13 3 42 8 65 11 63 9 162 43 250 85 136 65 273 197 343 328 30 56 76 188 87
247 34 188 28 373 -17 530 -65 228 -205 404 -396 500 -93 46 -136 61 -247 87
-80 18 -132 21 -486 25 -262 3 -399 1 -403 -5z m796 -311 c84 -22 179 -66 226
-106 65 -54 144 -197 168 -305 3 -14 8 -79 11 -145 13 -299 -80 -485 -293
-589 -87 -43 -155 -54 -350 -59 l-181 -4 -6 210 c-4 116 -7 392 -7 614 l0 403
178 0 c144 0 194 -4 254 -19z"/>
</g>
</svg>
