<?xml version="1.0" standalone="no"?>
<!DOCTYPE svg PUBLIC "-//W3C//DTD SVG 20010904//EN"
 "http://www.w3.org/TR/2001/REC-SVG-20010904/DTD/svg10.dtd">
<svg version="1.0" xmlns="http://www.w3.org/2000/svg"
 width="1024.000000pt" height="1024.000000pt" viewBox="0 0 1024.000000 1024.000000"
 preserveAspectRatio="xMidYMid meet">

<g transform="translate(0.000000,1024.000000) scale(0.100000,-0.100000)"
fill="#000000" stroke="none">
<path d="M1909 6461 c-29 -29 -29 -31 -29 -139 l0 -110 -132 -4 c-121 -3 -138
-5 -190 -31 -95 -47 -157 -131 -177 -242 -15 -78 -15 -1660 -1 -1736 22 -114
88 -200 190 -248 l55 -26 975 0 975 0 55 26 c69 33 122 87 158 158 l27 56 0
905 0 905 -24 52 c-27 62 -93 126 -159 156 -38 17 -74 22 -182 27 l-135 5 -5
113 c-5 109 -6 115 -33 138 -39 33 -81 31 -118 -5 -29 -29 -29 -31 -29 -140
l0 -111 -532 2 -533 3 -3 105 c-2 114 -11 142 -49 159 -40 18 -73 13 -104 -18z
m91 9 c0 -6 -11 -8 -27 -4 -25 7 -27 6 -14 -9 11 -15 11 -17 -2 -17 -13 0 -15
13 -8 38 3 8 51 0 51 -8z m1228 1 c10 -6 7 -10 -12 -13 -25 -5 -33 1 -19 15 8
9 15 9 31 -2z m-1194 -40 c0 -11 3 -21 8 -21 4 0 8 -5 8 -11 0 -8 -5 -8 -15 1
-12 10 -15 10 -15 0 0 -8 -3 -11 -6 -8 -3 4 -1 15 5 26 7 13 7 23 -2 32 -9 10
-9 11 3 8 8 -3 15 -15 14 -27z m-115 3 c-9 -10 -16 -53 -20 -108 l-5 -91 -2
82 c-2 84 9 133 29 133 8 0 7 -5 -2 -16z m1381 -28 c0 -12 -5 -7 -19 24 -11
24 -11 24 3 6 9 -11 16 -24 16 -30z m-1342 6 c2 -7 -3 -12 -10 -12 -8 0 -15 7
-15 15 0 18 19 15 25 -3z m1312 14 c0 -3 -13 -11 -29 -19 -23 -12 -28 -12 -24
-1 2 7 14 15 26 17 12 2 23 5 25 6 1 0 2 -1 2 -3z m-123 -58 c-3 -7 -5 -2 -5
12 0 14 2 19 5 13 2 -7 2 -19 0 -25z m150 2 c1 -11 -2 -20 -5 -20 -4 0 -8 9
-9 20 -1 11 2 20 5 20 4 0 8 -9 9 -20z m-1248 -83 c-2 -73 -2 -74 -27 -69
l-25 5 21 18 c17 14 22 28 22 68 0 28 2 51 5 51 3 0 5 -33 4 -73z m-19 43 c0
-5 -5 -10 -11 -10 -5 0 -7 5 -4 10 3 6 8 10 11 10 2 0 4 -4 4 -10z m1270 -50
c0 -49 -12 -66 -24 -34 -3 8 -2 12 4 9 13 -8 13 1 0 26 -7 13 -7 19 0 19 5 0
10 7 10 15 0 8 2 15 5 15 3 0 5 -22 5 -50z m-130 8 c0 -5 -7 -3 -15 6 -8 8
-15 18 -15 22 0 3 7 1 15 -6 8 -7 15 -17 15 -22z m90 17 c0 -8 -2 -15 -4 -15
-2 0 -6 7 -10 15 -3 8 -1 15 4 15 6 0 10 -7 10 -15z m-35 -17 c26 -12 36 -31
10 -22 -9 4 -15 0 -15 -9 0 -8 -7 -14 -15 -13 -19 3 -32 16 -16 16 8 0 10 7 6
20 -7 23 -5 24 30 8z m-1195 -13 c0 -8 -10 -10 -26 -7 -15 3 -21 8 -15 12 18
11 41 8 41 -5z m1129 -8 c8 -10 7 -14 -4 -14 -8 0 -15 6 -15 14 0 7 2 13 4 13
2 0 9 -6 15 -13z m-1181 -36 c10 -6 6 -10 -15 -14 -32 -6 -38 -3 -28 12 7 13
25 14 43 2z m1225 -17 c-3 -9 -9 -12 -12 -7 -3 4 -10 11 -15 16 -5 4 0 7 12 7
15 0 20 -4 15 -16z m67 -15 c0 -6 -4 -7 -10 -4 -5 3 -10 11 -10 16 0 6 5 7 10
4 6 -3 10 -11 10 -16z m136 -7 c-47 -2 -78 -9 -95 -21 -31 -22 -75 -31 -93
-20 -9 6 -3 9 17 10 17 1 34 1 39 0 13 -3 37 21 33 33 -3 8 22 10 82 6 l86 -5
-69 -3z m-1651 1 c-22 -3 -46 -9 -53 -15 -9 -8 -11 -7 -6 6 5 12 18 16 53 14
l46 -1 -40 -4z m105 3 c0 -9 -40 -13 -46 -5 -3 5 6 9 20 9 14 0 26 -2 26 -4z
m140 -6 c0 -5 -3 -9 -7 -9 -30 5 -45 -2 -39 -18 5 -15 3 -14 -9 2 -15 19 -14
20 12 26 42 10 43 10 43 -1z m957 4 c-4 -4 -54 -7 -112 -7 -58 0 -105 -4 -105
-9 0 -5 -5 -6 -12 -2 -7 4 -97 9 -201 10 -158 2 -187 1 -177 -11 8 -10 8 -15
-1 -21 -7 -4 -9 -3 -5 4 9 15 -8 23 -61 29 -28 3 -43 1 -39 -5 7 -11 -12 -11
-30 1 -6 3 -41 5 -78 3 -37 -1 -69 1 -72 5 -3 5 199 8 447 9 249 0 449 -3 446
-6z m148 -3 c-16 -4 -49 -6 -72 -4 -46 3 -46 3 -37 -21 5 -14 9 -14 22 -4 12
10 14 10 8 1 -5 -9 -1 -13 10 -13 16 0 11 -15 -4 -15 -4 0 -13 -4 -21 -9 -10
-6 -12 -6 -7 3 5 8 0 14 -13 18 -12 3 -21 10 -21 15 0 5 -5 6 -12 2 -7 -4 -8
-3 -4 5 4 6 12 8 18 5 7 -5 9 -1 5 9 -6 15 3 17 76 16 54 -1 72 -4 52 -8z
m-1445 -10 c0 -5 -7 -14 -15 -21 -11 -9 -18 -10 -29 -1 -10 9 -20 9 -40 0 -14
-7 -26 -16 -26 -21 0 -11 17 -10 25 2 10 16 25 11 18 -6 -4 -11 -15 -15 -35
-12 -16 3 -31 1 -34 -4 -3 -4 -12 -8 -20 -8 -13 0 -13 2 -2 14 22 22 98 57
108 51 6 -3 10 -1 10 4 0 6 9 11 20 11 11 0 20 -4 20 -9z m367 -16 c0 -8 -4
-12 -9 -9 -5 3 -6 10 -3 15 9 13 12 11 12 -6z m773 5 c0 -5 -4 -10 -10 -10 -5
0 -10 5 -10 10 0 6 5 10 10 10 6 0 10 -4 10 -10z m721 -8 c-7 -2 -18 1 -23 6
-8 8 -4 9 13 5 13 -4 18 -8 10 -11z m89 8 c0 -5 -4 -10 -10 -10 -5 0 -10 5
-10 10 0 6 5 10 10 10 6 0 10 -4 10 -10z m-1385 -14 c23 -11 25 -14 10 -14
-11 0 -31 -3 -43 -6 -19 -4 -22 -3 -12 9 9 11 6 14 -17 18 l-28 4 30 1 c17 1
44 -5 60 -12z m170 4 c-3 -5 -10 -10 -16 -10 -5 0 -9 5 -9 10 0 6 7 10 16 10
8 0 12 -4 9 -10z m171 2 c-10 -10 -70 -12 -102 -3 -22 6 -13 8 40 9 37 0 65
-2 62 -6z m139 -2 c-3 -5 2 -10 11 -10 10 0 15 -3 11 -6 -9 -9 -48 6 -42 17 4
5 11 9 16 9 6 0 7 -4 4 -10z m60 -14 c12 -12 12 -15 1 -19 -8 -3 -16 2 -19 14
-6 23 -1 24 18 5z m895 10 c0 -2 -7 -7 -16 -10 -8 -3 -12 -2 -9 4 6 10 25 14
25 6z m-1815 -15 c10 -17 -12 -21 -25 -6 -10 12 -10 15 3 15 9 0 18 -4 22 -9z
m1105 5 c0 -2 -7 -6 -15 -10 -8 -3 -15 -1 -15 4 0 6 7 10 15 10 8 0 15 -2 15
-4z m640 -6 c0 -5 -4 -10 -10 -10 -5 0 -10 5 -10 10 0 6 5 10 10 10 6 0 10 -4
10 -10z m90 0 c0 -5 -5 -10 -11 -10 -5 0 -7 5 -4 10 3 6 8 10 11 10 2 0 4 -4
4 -10z m-1360 -10 c0 -5 -7 -7 -15 -4 -8 4 -15 8 -15 10 0 2 7 4 15 4 8 0 15
-4 15 -10z m1200 6 c0 -2 -7 -7 -16 -10 -8 -3 -12 -2 -9 4 6 10 25 14 25 6z
m-1553 -12 c-3 -3 -12 -4 -19 -1 -8 3 -5 6 6 6 11 1 17 -2 13 -5z m1452 -10
c5 4 13 1 16 -5 5 -7 -2 -9 -21 -7 -15 2 -30 10 -32 18 -5 13 -3 13 11 2 9 -8
21 -11 26 -8z m-509 -4 c0 -5 -4 -10 -10 -10 -5 0 -10 5 -10 10 0 6 5 10 10
10 6 0 10 -4 10 -10z m809 -3 c8 -10 7 -14 -4 -14 -8 0 -15 6 -15 14 0 7 2 13
4 13 2 0 9 -6 15 -13z m-2078 -20 c-10 -9 -11 -8 -5 6 3 10 9 15 12 12 3 -3 0
-11 -7 -18z m524 13 c-3 -5 -12 -10 -18 -10 -7 0 -6 4 3 10 19 12 23 12 15 0z
m70 1 c3 -5 1 -12 -4 -15 -5 -3 -11 1 -15 9 -6 16 9 21 19 6z m74 0 c9 -6 10
-11 2 -15 -6 -4 -11 -2 -11 4 0 6 -4 8 -10 5 -5 -3 -10 -1 -10 4 0 13 10 14
29 2z m763 -5 c7 4 8 2 4 -5 -4 -6 -4 -18 1 -24 4 -7 0 -4 -9 6 -10 11 -18 24
-17 31 0 7 2 6 6 -2 2 -6 10 -9 15 -6z m522 3 c-3 -6 0 -16 7 -21 11 -8 10 -9
-3 -4 -20 6 -24 -4 -7 -21 8 -8 8 -13 0 -18 -18 -11 -25 29 -12 73 1 1 6 2 12
2 5 0 7 -5 3 -11z m96 -19 c0 -3 -9 -6 -20 -6 -11 0 -20 4 -20 9 0 4 -5 5 -12
1 -7 -4 -8 -3 -4 5 4 6 11 9 16 6 5 -3 12 0 16 6 4 8 9 7 15 -2 5 -8 9 -16 9
-19z m-2221 -3 c-13 -13 -26 -22 -28 -20 -7 5 31 43 42 43 6 0 -1 -10 -14 -23z
m61 19 c0 -3 -4 -8 -10 -11 -5 -3 -10 -1 -10 4 0 6 5 11 10 11 6 0 10 -2 10
-4z m51 -29 c-16 -16 -25 -1 -10 16 8 8 16 11 18 5 2 -5 -2 -15 -8 -21z m39
23 c0 -5 -4 -10 -10 -10 -5 0 -10 5 -10 10 0 6 5 10 10 10 6 0 10 -4 10 -10z
m335 0 c-3 -5 -12 -10 -18 -10 -7 0 -6 4 3 10 19 12 23 12 15 0z m175 -1 c0
-5 -4 -8 -9 -5 -5 3 -14 -1 -21 -8 -9 -12 -5 -15 22 -19 l33 -4 -36 -1 c-22
-1 -42 4 -49 13 -10 13 -9 15 8 15 12 0 24 5 27 10 8 13 25 13 25 -1z m435
-10 c3 -4 -7 -6 -22 -4 -16 2 -32 4 -38 4 -5 1 -4 5 4 10 14 9 48 4 56 -10z
m-521 -4 c-4 -8 -8 -15 -10 -15 -2 0 -4 7 -4 15 0 8 4 15 10 15 5 0 7 -7 4
-15z m1516 -16 c0 -11 -7 -19 -15 -19 -8 0 -15 5 -15 11 0 5 5 7 12 3 7 -4 8
-3 4 4 -4 7 -17 12 -29 12 -16 0 -18 3 -8 9 20 13 51 1 51 -20z m-1866 -10
c-10 -4 -28 -8 -39 -8 -21 -1 -85 -55 -85 -73 0 -5 -7 -7 -16 -4 -12 5 -15 2
-10 -9 3 -10 2 -13 -5 -10 -6 4 -8 13 -5 20 3 8 0 16 -7 19 -7 4 1 4 16 1 25
-5 28 -3 22 14 -5 16 -2 18 15 14 22 -6 29 21 8 31 -7 4 -3 4 9 2 12 -2 39 2
60 9 39 13 73 8 37 -6z m56 5 c0 -2 -7 -4 -15 -4 -8 0 -15 4 -15 10 0 5 7 7
15 4 8 -4 15 -8 15 -10z m536 -2 c-21 -2 -42 0 -47 5 -4 4 13 6 39 3 l47 -5
-39 -3z m1074 3 c0 -2 -9 -3 -19 -2 -11 0 -18 5 -15 9 4 6 34 0 34 -7z m25 5
c3 -5 1 -10 -4 -10 -6 0 -11 5 -11 10 0 6 2 10 4 10 3 0 8 -4 11 -10z m375 2
c0 -5 -7 -9 -15 -9 -8 0 -12 4 -9 9 3 4 9 8 15 8 5 0 9 -4 9 -8z m-1923 -8
c-3 -3 -12 -4 -19 -1 -8 3 -5 6 6 6 11 1 17 -2 13 -5z m846 -1 c-18 -2 -48 -2
-65 0 -18 2 -4 4 32 4 36 0 50 -2 33 -4z m70 0 c-7 -2 -19 -2 -25 0 -7 3 -2 5
12 5 14 0 19 -2 13 -5z m44 1 c-3 -3 -12 -4 -19 -1 -8 3 -5 6 6 6 11 1 17 -2
13 -5z m126 -1 c-7 -2 -21 -2 -30 0 -10 3 -4 5 12 5 17 0 24 -2 18 -5z m204 1
c-3 -3 -12 -4 -19 -1 -8 3 -5 6 6 6 11 1 17 -2 13 -5z m59 -19 c-2 -7 0 -17 6
-23 12 -12 -9 -11 -29 1 -7 4 -13 0 -16 -10 -3 -11 -5 -6 -6 11 -1 23 2 26 12
17 14 -11 27 -5 27 11 0 5 -5 6 -12 2 -7 -4 -8 -3 -4 5 9 15 29 3 22 -14z m81
19 c-3 -3 -12 -4 -19 -1 -8 3 -5 6 6 6 11 1 17 -2 13 -5z m236 -1 c-13 -2 -33
-2 -45 0 -13 2 -3 4 22 4 25 0 35 -2 23 -4z m-1493 -13 c0 -5 -2 -10 -4 -10
-3 0 -8 5 -11 10 -3 6 -1 10 4 10 6 0 11 -4 11 -10z m1650 0 c0 -5 -2 -10 -4
-10 -3 0 -8 5 -11 10 -3 6 -1 10 4 10 6 0 11 -4 11 -10z m-2135 -10 c-3 -5
-12 -10 -18 -10 -7 0 -6 4 3 10 19 12 23 12 15 0z m355 -88 c0 -90 1 -95 29
-123 38 -38 91 -40 126 -4 26 25 27 32 29 150 l1 69 530 0 530 -1 3 -95 c2
-85 5 -97 26 -117 13 -13 42 -25 63 -28 32 -4 45 -1 68 20 28 24 29 27 30 122
l0 98 114 -2 c131 -1 164 -14 194 -71 16 -33 17 -91 15 -897 -3 -853 -3 -862
-24 -889 -11 -15 -33 -37 -48 -48 -27 -21 -36 -21 -955 -24 l-927 -2 -45 23
c-30 15 -50 36 -64 62 -20 39 -20 59 -19 885 0 755 2 848 16 875 39 73 86 92
225 91 l83 -1 0 -93z m168 -1 c2 -77 0 -97 -14 -112 -9 -11 -22 -19 -28 -18
-6 0 -6 3 2 6 6 2 9 10 6 15 -4 7 -2 8 4 4 7 -4 14 3 17 16 7 28 0 145 -11
172 -5 14 -3 17 7 14 10 -3 15 -28 17 -97z m1657 59 c-6 -9 -9 -9 -16 1 -10
17 0 34 13 21 6 -6 7 -16 3 -22z m-2278 5 c0 -8 -4 -15 -9 -15 -10 0 -11 14
-1 23 9 10 10 9 10 -8z m476 0 c-3 -9 -8 -14 -10 -11 -3 3 -2 9 2 15 9 16 15
13 8 -4z m-403 -5 c0 -5 -5 -10 -11 -10 -5 0 -7 5 -4 10 3 6 8 10 11 10 2 0 4
-4 4 -10z m490 -12 c0 -6 -6 -5 -15 2 -8 7 -15 14 -15 16 0 2 7 1 15 -2 8 -4
15 -11 15 -16z m1686 -5 c-10 -10 -46 -14 -46 -5 0 4 12 9 27 10 14 1 23 -1
19 -5z m107 0 c-7 -2 -19 -2 -25 0 -7 3 -2 5 12 5 14 0 19 -2 13 -5z m-1886
-55 c-2 -13 -4 -5 -4 17 -1 22 1 32 4 23 2 -10 2 -28 0 -40z m36 37 c-3 -9 -8
-14 -10 -11 -3 3 -2 9 2 15 9 16 15 13 8 -4z m1224 0 c0 -8 -4 -15 -9 -15 -10
0 -11 14 -1 23 9 10 10 9 10 -8z m113 -5 c0 -5 -5 -10 -11 -10 -5 0 -7 5 -4
10 3 6 8 10 11 10 2 0 4 -4 4 -10z m534 -32 c4 -17 2 -28 -4 -28 -5 0 -10 9
-10 20 0 11 -6 20 -12 20 -9 0 -8 3 2 10 17 11 15 12 24 -22z m-1799 2 c-3 -5
-11 -10 -16 -10 -6 0 -7 5 -4 10 3 6 11 10 16 10 6 0 7 -4 4 -10z m1168 -56
c4 3 3 1 -2 -5 -15 -19 -28 -2 -28 38 l-1 38 11 -38 c7 -22 15 -36 20 -33z
m-1767 39 c-3 -3 -1 -14 5 -24 6 -11 6 -19 0 -19 -10 0 -21 24 -21 46 0 9 5
12 11 9 6 -4 8 -9 5 -12z m114 13 c0 -3 -4 -8 -10 -11 -5 -3 -10 -1 -10 4 0 6
5 11 10 11 6 0 10 -2 10 -4z m1778 -41 c-2 -25 -6 -45 -10 -45 -10 0 -10 17
-2 59 9 45 15 38 12 -14z m445 10 c-10 -7 -22 -11 -27 -8 -5 4 -1 12 9 19 10
7 22 11 27 8 5 -3 1 -12 -9 -19z m-2269 4 c-6 -11 -44 -12 -44 -1 0 4 11 8 25
8 14 1 22 -2 19 -7z m471 1 c3 -6 -1 -7 -9 -4 -18 7 -21 14 -7 14 6 0 13 -4
16 -10z m40 0 c-3 -5 1 -10 9 -10 9 0 16 -4 16 -8 0 -4 -8 -8 -19 -8 -11 0
-17 6 -16 16 5 21 4 20 11 20 3 0 2 -4 -1 -10z m1215 0 c0 -5 -2 -10 -4 -10
-3 0 -8 5 -11 10 -3 6 -1 10 4 10 6 0 11 -4 11 -10z m80 0 c0 -5 -5 -10 -11
-10 -5 0 -7 5 -4 10 3 6 8 10 11 10 2 0 4 -4 4 -10z m-1740 -10 c0 -5 -5 -10
-11 -10 -5 0 -7 5 -4 10 3 6 8 10 11 10 2 0 4 -4 4 -10z m1725 -22 c5 -4 0 -6
-13 -5 -22 1 -27 8 -15 20 3 4 9 4 12 0 3 -4 10 -11 16 -15z m495 12 c0 -5 -2
-10 -4 -10 -3 0 -8 5 -11 10 -3 6 -1 10 4 10 6 0 11 -4 11 -10z m48 -57 l-1
-68 -6 60 c-4 33 -5 63 -3 68 9 20 12 1 10 -60z m-141 10 c-3 -10 -5 -4 -5 12
0 17 2 24 5 18 2 -7 2 -21 0 -30z m-2242 9 c-3 -3 -11 0 -18 7 -9 10 -8 11 6
5 10 -3 15 -9 12 -12z m28 -7 c-7 -21 -13 -19 -13 6 0 11 4 18 10 14 5 -3 7
-12 3 -20z m492 -5 c4 -6 10 -8 15 -5 4 3 10 -1 13 -9 4 -11 -1 -12 -28 -3
-19 5 -32 14 -29 19 7 11 21 10 29 -2z m1256 -18 c-7 -2 -18 1 -23 6 -8 8 -4
9 13 5 13 -4 18 -8 10 -11z m59 8 c0 -5 -5 -10 -11 -10 -5 0 -7 5 -4 10 3 6 8
10 11 10 2 0 4 -4 4 -10z m465 -40 c3 -5 2 -10 -4 -10 -5 0 -13 5 -16 10 -3 6
-2 10 4 10 5 0 13 -4 16 -10z m-44 -25 c5 4 9 1 9 -4 0 -6 -7 -11 -16 -11 -12
0 -15 -7 -12 -30 3 -16 1 -30 -4 -30 -4 0 -7 23 -6 51 0 38 3 47 10 35 5 -9
13 -14 19 -11z m59 1 c0 -2 -7 -7 -16 -10 -8 -3 -12 -2 -9 4 6 10 25 14 25 6z
m70 -78 c0 -43 -4 -68 -9 -60 -4 7 -6 25 -3 39 3 18 1 24 -7 19 -6 -4 -11 -2
-11 3 0 6 5 11 11 11 6 0 8 13 5 30 -2 17 0 30 5 30 5 0 9 -33 9 -72z m-2294
30 c-12 -7 -14 -14 -6 -28 5 -10 10 -25 9 -32 0 -7 -7 2 -15 20 -13 29 -24 37
-46 33 -5 0 -8 4 -8 10 0 7 10 9 25 7 14 -3 25 -1 25 3 0 5 7 6 16 2 15 -5 15
-7 0 -15z m2212 8 c-2 -1 -10 -7 -18 -13 -13 -10 -16 -8 -16 6 0 13 6 17 19
13 10 -2 16 -5 15 -6z m33 -43 c10 -11 10 -14 2 -9 -7 4 -13 3 -13 -2 0 -5
-11 -14 -25 -20 -15 -7 -25 -8 -25 -2 0 6 5 10 11 10 6 0 17 6 25 14 11 11 11
16 1 19 -7 4 -8 6 -1 6 6 1 18 -7 25 -16z m-2324 -15 c-3 -8 -6 -5 -6 6 -1 11
2 17 5 13 3 -3 4 -12 1 -19z m-40 -10 c-3 -8 -6 -5 -6 6 -1 11 2 17 5 13 3 -3
4 -12 1 -19z m140 0 c-3 -8 -6 -5 -6 6 -1 11 2 17 5 13 3 -3 4 -12 1 -19z
m2120 -40 c-3 -8 -6 -5 -6 6 -1 11 2 17 5 13 3 -3 4 -12 1 -19z m63 -8 c0 -11
-2 -20 -4 -20 -2 0 -6 9 -9 20 -3 11 -1 20 4 20 5 0 9 -9 9 -20z m-2305 -40
c-3 -5 -12 -10 -18 -10 -7 0 -6 4 3 10 19 12 23 12 15 0z m2392 -62 c-2 -13
-4 -3 -4 22 0 25 2 35 4 23 2 -13 2 -33 0 -45z m-2362 12 c4 -7 -3 -8 -22 -4
-38 9 -42 14 -10 14 14 0 29 -5 32 -10z m88 3 c-7 -2 -21 -2 -30 0 -10 3 -4 5
12 5 17 0 24 -2 18 -5z m2197 -3 c0 -5 -2 -10 -4 -10 -3 0 -8 5 -11 10 -3 6
-1 10 4 10 6 0 11 -4 11 -10z m-2326 -44 c2 -14 -1 -26 -5 -26 -5 0 -9 14 -9
32 0 36 10 32 14 -6z m2253 2 c-3 -7 -5 -2 -5 12 0 14 2 19 5 13 2 -7 2 -19 0
-25z m-2142 12 c3 -5 1 -10 -4 -10 -6 0 -11 5 -11 10 0 6 2 10 4 10 3 0 8 -4
11 -10z m2208 -4 c12 -9 14 -16 8 -21 -6 -3 -11 -1 -11 5 0 6 -10 15 -22 20
-13 5 -16 9 -8 9 8 0 23 -6 33 -13z m40 -6 c-3 -11 -7 -20 -9 -20 -2 0 -4 9
-4 20 0 11 4 20 9 20 5 0 7 -9 4 -20z m38 -9 c5 8 9 -51 9 -143 0 -144 -1
-157 -17 -151 -11 4 -12 8 -5 11 7 2 12 14 12 28 0 18 -4 22 -17 18 -16 -5
-17 -5 -1 5 13 9 16 29 17 111 1 60 -3 100 -9 100 -6 0 -10 8 -9 18 0 12 2 13
6 3 5 -11 7 -11 14 0z m-126 -21 c-10 -11 -21 -18 -23 -15 -3 3 3 12 14 20 27
20 30 18 9 -5z m-2265 -20 c0 -5 -4 -10 -10 -10 -5 0 -10 5 -10 10 0 6 5 10
10 10 6 0 10 -4 10 -10z m126 -28 c-4 -3 -11 0 -16 8 -15 24 -11 33 6 15 9 -9
13 -19 10 -23z m-66 12 c0 -2 -7 -4 -15 -4 -8 0 -15 4 -15 10 0 5 7 7 15 4 8
-4 15 -8 15 -10z m2187 -41 c-3 -10 -5 -2 -5 17 0 19 2 27 5 18 2 -10 2 -26 0
-35z m97 41 c9 -3 16 -14 16 -23 0 -11 -3 -12 -8 -4 -4 7 -18 14 -30 16 -12 2
-25 6 -28 10 -9 9 29 9 50 1z m-2345 -46 c-1 -7 -5 -24 -9 -38 -7 -22 -8 -21
-9 13 -1 20 4 37 9 37 6 0 10 -6 9 -12z m2289 -13 c-3 -3 -9 2 -12 12 -6 14
-5 15 5 6 7 -7 10 -15 7 -18z m-2167 -4 c7 11 9 10 9 -5 0 -11 -5 -16 -14 -13
-7 3 -19 0 -25 -6 -8 -8 -11 -7 -11 5 0 18 23 30 29 15 2 -5 7 -3 12 4z m2126
-123 c-2 -24 -4 -5 -4 42 0 47 2 66 4 43 2 -24 2 -62 0 -85z m133 112 c0 -5
-8 -10 -17 -10 -15 0 -16 2 -3 10 19 12 20 12 20 0z m-2297 -61 c-6 -6 -19 -9
-29 -6 -17 3 -16 5 6 14 28 12 39 8 23 -8z m2257 13 c0 -12 -29 -48 -30 -36 0
5 6 16 13 23 10 11 6 13 -23 7 -25 -4 -31 -3 -20 4 18 12 60 13 60 2z m-2213
-34 c-3 -8 -6 -5 -6 6 -1 11 2 17 5 13 3 -3 4 -12 1 -19z m-61 -11 c4 -4 0 -7
-9 -7 -9 0 -18 4 -21 9 -7 10 20 9 30 -2z m-72 -12 c3 -8 1 -15 -4 -15 -6 0
-10 7 -10 15 0 8 2 15 4 15 2 0 6 -7 10 -15z m126 4 c11 -8 9 -9 -10 -3 -23 6
-24 6 -10 -12 8 -10 19 -22 24 -25 4 -4 -4 -6 -18 -6 -14 0 -26 3 -26 8 0 5 5
9 12 9 9 0 9 3 0 12 -25 25 -3 39 28 17z m2217 -36 c0 -9 -4 -10 -14 -2 -7 6
-13 12 -13 14 0 1 6 2 13 2 8 0 14 -6 14 -14z m-2277 -18 c-7 -9 -15 -13 -19
-10 -3 3 1 10 9 15 21 14 24 12 10 -5z m-60 -24 c6 -13 8 -21 3 -18 -5 3 -10
-22 -11 -56 -4 -94 -12 -81 -11 17 0 48 2 86 3 84 2 -1 9 -14 16 -27z m2247
-13 c-3 -7 -5 -2 -5 12 0 14 2 19 5 13 2 -7 2 -19 0 -25z m152 -65 c0 -43 -3
-71 -6 -63 -3 8 -11 18 -17 22 -8 5 -7 8 2 8 19 0 14 30 -5 30 -16 1 -16 2 -3
13 18 14 24 37 10 37 -5 0 -10 7 -10 15 0 8 7 15 15 15 12 0 15 -15 14 -77z
m-2269 39 c0 -8 -1 -13 -3 -11 -1 2 -9 12 -16 22 -12 15 -12 17 3 11 9 -3 16
-13 16 -22z m2220 2 c0 -2 -7 -4 -15 -4 -8 0 -15 4 -15 10 0 5 7 7 15 4 8 -4
15 -8 15 -10z m-2260 -4 c0 -5 -2 -10 -4 -10 -3 0 -8 5 -11 10 -3 6 -1 10 4
10 6 0 11 -4 11 -10z m2165 -100 c0 -60 -3 -110 -7 -110 -5 0 -8 50 -8 110 0
61 3 110 8 110 4 0 7 -49 7 -110z m-2141 64 c18 -7 22 -34 5 -34 -5 0 -7 5 -4
10 3 6 -3 10 -15 10 -12 0 -18 5 -15 10 7 12 8 12 29 4z m2238 -22 c4 -13 -1
-18 -16 -20 -15 -1 -17 1 -7 7 7 5 10 14 7 20 -4 6 -3 11 2 11 5 0 12 -8 14
-18z m-55 -9 c-4 -3 -1 -13 6 -22 11 -14 10 -14 -5 -2 -21 15 -23 31 -6 31 6
0 8 -3 5 -7z m-2191 -25 c4 -6 3 -8 -4 -4 -5 3 -13 0 -15 -6 -3 -8 -6 -6 -6 5
-1 19 14 23 25 5z m2291 -60 c-3 -7 -5 -2 -5 12 0 14 2 19 5 13 2 -7 2 -19 0
-25z m-2396 8 c-9 -11 -9 -15 1 -19 7 -2 11 -7 8 -10 -3 -3 -12 -2 -19 3 -16
9 -8 40 10 40 9 0 9 -3 0 -14z m2334 -59 c-8 -13 -12 -27 -8 -30 8 -9 -16 -8
-39 1 -15 6 -13 9 12 20 17 8 28 18 24 23 -3 5 2 9 11 9 14 0 14 -2 0 -23z
m65 -22 c0 -25 -4 -45 -10 -45 -5 0 -6 7 -3 17 4 11 3 14 -5 9 -7 -4 -12 -3
-12 3 0 5 6 12 13 15 9 5 9 7 0 12 -10 4 -10 8 0 19 17 20 17 20 17 -30z
m-2413 3 c-3 -8 -6 -5 -6 6 -1 11 2 17 5 13 3 -3 4 -12 1 -19z m2267 -61 c2
-31 0 -57 -5 -57 -5 0 -9 28 -9 62 0 75 8 72 14 -5z m-2259 34 c3 -5 1 -12 -5
-16 -5 -3 -10 1 -10 9 0 18 6 21 15 7z m2365 -11 c0 -5 -2 -10 -4 -10 -3 0 -8
5 -11 10 -3 6 -1 10 4 10 6 0 11 -4 11 -10z m40 -60 c0 -16 -4 -30 -8 -30 -5
0 -7 14 -4 30 2 17 6 30 8 30 2 0 4 -13 4 -30z m-2400 -52 c0 -5 -4 -8 -10 -8
-5 0 -10 10 -10 23 0 18 2 19 10 7 5 -8 10 -18 10 -22z m2253 -35 c-5 -67 -13
-67 -13 1 0 31 4 55 9 52 4 -3 7 -27 4 -53z m47 53 c0 -3 -4 -8 -10 -11 -5 -3
-10 -1 -10 4 0 6 5 11 10 11 6 0 10 -2 10 -4z m50 -30 c0 -2 -7 -7 -16 -10 -8
-3 -12 -2 -9 4 6 10 25 14 25 6z m50 -54 c0 -41 -3 -48 -20 -48 -11 0 -20 4
-20 8 0 4 6 8 14 8 10 0 12 11 9 40 -3 25 -1 40 6 40 6 0 11 -20 11 -48z
m-2393 32 c-3 -3 -12 -4 -19 -1 -8 3 -5 6 6 6 11 1 17 -2 13 -5z m-20 -56 c-3
-8 -6 -5 -6 6 -1 11 2 17 5 13 3 -3 4 -12 1 -19z m2363 -12 c0 -2 -9 -6 -20
-9 -11 -3 -18 -1 -14 4 5 9 34 13 34 5z m-2220 -26 c0 -11 -2 -20 -4 -20 -2 0
-6 9 -9 20 -3 11 -1 20 4 20 5 0 9 -9 9 -20z m2214 2 c3 -5 -1 -9 -9 -9 -8 0
-12 4 -9 9 3 4 7 8 9 8 2 0 6 -4 9 -8z m-2357 -34 c-3 -7 -5 -2 -5 12 0 14 2
19 5 13 2 -7 2 -19 0 -25z m2410 -10 c-3 -7 -5 -2 -5 12 0 14 2 19 5 13 2 -7
2 -19 0 -25z m-2291 -18 c20 0 24 -5 23 -27 -2 -25 -2 -25 -6 -5 -3 17 -11 23
-26 22 -43 -4 -49 -1 -35 14 7 8 15 10 16 5 2 -5 15 -9 28 -9z m2193 7 c8 -10
7 -14 -4 -14 -8 0 -15 6 -15 14 0 7 2 13 4 13 2 0 9 -6 15 -13z m-2312 -19
c-3 -8 -6 -5 -6 6 -1 11 2 17 5 13 3 -3 4 -12 1 -19z m2404 -311 c-5 -5 -11
-4 -15 2 -4 6 -3 11 3 11 13 0 9 93 -4 102 -6 5 -5 8 3 8 8 0 12 18 12 54 0
52 -13 81 -23 54 -2 -8 -8 -9 -13 -4 -5 5 -5 10 1 13 26 9 40 25 28 30 -7 2
-13 9 -13 14 0 6 5 7 10 4 6 -3 11 4 12 17 1 13 4 -49 5 -136 2 -88 -1 -164
-6 -169z m-2404 241 c-2 -13 -4 -5 -4 17 -1 22 1 32 4 23 2 -10 2 -28 0 -40z
m2268 42 c3 -5 1 -10 -4 -10 -6 0 -11 5 -11 10 0 6 2 10 4 10 3 0 8 -4 11 -10z
m-2128 -67 c-3 -10 -5 -2 -5 17 0 19 2 27 5 18 2 -10 2 -26 0 -35z m2120 15
c-3 -7 -5 -2 -5 12 0 14 2 19 5 13 2 -7 2 -19 0 -25z m-2197 8 c0 -2 -7 -6
-15 -10 -8 -3 -15 -1 -15 4 0 6 7 10 15 10 8 0 15 -2 15 -4z m-63 -48 c-3 -8
-6 -5 -6 6 -1 11 2 17 5 13 3 -3 4 -12 1 -19z m78 2 c3 -5 2 -10 -4 -10 -5 0
-13 5 -16 10 -3 6 -2 10 4 10 5 0 13 -4 16 -10z m2190 0 c3 -5 1 -10 -4 -10
-6 0 -11 5 -11 10 0 6 2 10 4 10 3 0 8 -4 11 -10z m-2125 -27 c0 -8 -9 -11
-22 -9 -13 3 -27 5 -33 5 -5 1 -5 5 2 9 19 12 53 9 53 -5z m2123 -12 c2 -10 1
-25 -4 -32 -6 -10 -9 -4 -9 19 0 36 5 42 13 13z m-2126 -33 c-3 -8 -6 -5 -6 6
-1 11 2 17 5 13 3 -3 4 -12 1 -19z m2203 2 c12 -8 9 -10 -13 -10 -16 0 -26 4
-22 10 8 12 16 12 35 0z m-2272 -19 c3 -8 -1 -12 -9 -9 -7 2 -15 10 -17 17 -3
8 1 12 9 9 7 -2 15 -10 17 -17z m-71 -33 c-3 -8 -6 -5 -6 6 -1 11 2 17 5 13 3
-3 4 -12 1 -19z m143 5 c0 -9 -7 -10 -24 -3 -13 5 -27 6 -32 2 -4 -4 -4 -1 0
5 9 16 56 13 56 -4z m2200 -23 c0 -5 -8 -10 -17 -10 -15 0 -16 2 -3 10 19 12
20 12 20 0z m-2203 -20 c-1 -20 -33 -38 -44 -26 -4 3 2 6 11 6 12 0 16 5 13
14 -6 14 1 26 14 26 4 0 7 -9 6 -20z m2121 -45 c-1 -19 -6 -35 -11 -35 -5 0
-6 7 -3 16 3 9 6 24 6 35 0 10 2 19 5 19 3 0 5 -16 3 -35z m-2232 13 c5 -7 3
-8 -6 -3 -7 4 -16 2 -21 -6 -7 -11 -9 -10 -9 4 0 19 25 23 36 5z m113 -17 c8
-5 9 -11 3 -15 -5 -3 -15 1 -22 9 -14 16 -3 20 19 6z m2166 -39 c-8 -8 -25 10
-19 20 4 6 9 5 15 -3 4 -7 6 -15 4 -17z m92 6 c-3 -8 -6 -5 -6 6 -1 11 2 17 5
13 3 -3 4 -12 1 -19z m-2237 -3 c6 -7 2 -11 -11 -11 -10 0 -19 3 -19 7 0 4 -8
10 -17 12 -10 3 -5 4 10 4 16 -1 32 -6 37 -12z m-114 -14 c0 -11 -5 -17 -13
-14 -19 8 -16 -14 5 -26 16 -10 16 -10 0 -11 -10 0 -18 2 -18 4 0 2 -3 11 -6
19 -3 8 2 22 11 31 20 20 21 20 21 -3z m2221 -11 c4 -12 3 -13 -5 -1 -6 8 -17
11 -27 8 -10 -4 -14 -3 -10 4 9 14 37 7 42 -11z m123 1 c0 -6 -4 -13 -10 -16
-5 -3 -10 1 -10 9 0 9 5 16 10 16 6 0 10 -4 10 -9z m-2187 -34 c3 -9 -4 -12
-22 -11 -36 2 -38 3 -21 14 21 13 37 12 43 -3z m2067 9 c0 -2 -7 -7 -16 -10
-8 -3 -12 -2 -9 4 6 10 25 14 25 6z m-3 -32 c-3 -3 -12 -4 -19 -1 -8 3 -5 6 6
6 11 1 17 -2 13 -5z m-2031 -42 c-4 -3 -11 0 -16 8 -15 24 -11 33 6 15 9 -9
13 -19 10 -23z m51 32 c-3 -3 -12 -4 -19 -1 -8 3 -5 6 6 6 11 1 17 -2 13 -5z
m68 -4 c3 -5 -1 -10 -10 -10 -9 0 -13 5 -10 10 3 6 8 10 10 10 2 0 7 -4 10
-10z m-265 -15 c-6 -8 -9 -19 -5 -25 3 -5 2 -10 -4 -10 -14 0 -19 23 -7 37 16
17 31 16 16 -2z m340 10 c0 -7 -30 -13 -34 -7 -3 4 4 9 15 9 10 1 19 0 19 -2z
m720 1 c0 -3 -4 -8 -10 -11 -5 -3 -10 -1 -10 4 0 6 5 11 10 11 6 0 10 -2 10
-4z m193 -11 c-3 -9 -8 -14 -10 -11 -3 3 -2 9 2 15 9 16 15 13 8 -4z m51 6 c4
-5 -3 -7 -14 -4 -23 6 -26 13 -6 13 8 0 17 -4 20 -9z m410 3 c23 -9 20 -23 -4
-17 -11 3 -20 9 -20 14 0 11 3 11 24 3z m441 -3 c3 -6 -3 -9 -14 -8 -11 0 -17
5 -15 9 7 11 22 10 29 -1z m95 -6 c0 -8 -4 -15 -10 -15 -5 0 -7 7 -4 15 4 8 8
15 10 15 2 0 4 -7 4 -15z m-355 -5 c8 -13 -15 -13 -35 0 -12 8 -11 10 7 10 12
0 25 -4 28 -10z m-1375 -20 c0 -19 -18 -19 -23 -1 -3 14 -1 18 9 14 8 -3 14
-9 14 -13z m170 0 c6 -11 8 -20 6 -20 -3 0 -10 9 -16 20 -6 11 -8 20 -6 20 3
0 10 -9 16 -20z m111 3 c13 -16 12 -17 -3 -5 -9 8 -23 10 -29 6 -8 -4 -9 -3
-5 4 10 17 21 15 37 -5z m289 7 c0 -5 -5 -10 -11 -10 -5 0 -7 5 -4 10 3 6 8
10 11 10 2 0 4 -4 4 -10z m540 0 c0 -5 -8 -10 -17 -10 -15 0 -16 2 -3 10 19
12 20 12 20 0z m-898 -46 c-6 -11 -11 -13 -16 -5 -4 6 -2 11 4 11 7 0 9 9 5
23 -5 19 -4 20 5 5 7 -12 8 -24 2 -34z m193 36 c4 -6 11 -7 17 -4 7 4 8 2 4
-4 -5 -9 -13 -9 -27 -2 -10 6 -19 13 -19 15 0 9 19 5 25 -5z m649 2 c2 -4 -5
-9 -17 -9 -17 -2 -19 0 -7 7 18 12 18 12 24 2z m613 2 c-3 -3 -12 -4 -19 -1
-8 3 -5 6 6 6 11 1 17 -2 13 -5z m-2072 -14 c3 -5 -1 -10 -10 -10 -9 0 -13 5
-10 10 3 6 8 10 10 10 2 0 7 -4 10 -10z m215 0 c0 -5 -5 -10 -11 -10 -5 0 -7
5 -4 10 3 6 8 10 11 10 2 0 4 -4 4 -10z m255 -11 c-4 -5 -3 -9 2 -10 23 -2 46
-8 51 -14 11 -11 -49 4 -64 16 -15 12 -9 33 7 23 5 -3 7 -10 4 -15z m1079 6
c-4 -8 -10 -12 -15 -9 -14 8 -10 24 6 24 9 0 12 -6 9 -15z m141 5 c-3 -5 -11
-10 -16 -10 -6 0 -7 5 -4 10 3 6 11 10 16 10 6 0 7 -4 4 -10z m-65 -4 c0 -3
-4 -8 -10 -11 -5 -3 -10 -1 -10 4 0 6 5 11 10 11 6 0 10 -2 10 -4z m195 -6 c3
-6 -1 -7 -9 -4 -18 7 -21 14 -7 14 6 0 13 -4 16 -10z m-1745 -10 c0 -13 -11
-13 -30 0 -12 8 -11 10 8 10 12 0 22 -4 22 -10z m75 0 c8 -13 -5 -13 -25 0
-13 8 -13 10 2 10 9 0 20 -4 23 -10z m110 0 c3 -5 -3 -10 -14 -10 -12 0 -21 5
-21 10 0 6 6 10 14 10 8 0 18 -4 21 -10z m917 -18 c-11 -11 -23 -18 -26 -15
-3 3 5 14 17 23 29 24 35 18 9 -8z m195 3 c0 -8 -2 -13 -5 -10 -3 2 -13 0 -23
-6 -11 -5 -19 -6 -19 -2 0 5 10 13 23 19 12 7 22 12 23 13 0 0 1 -6 1 -14z
m675 -9 c7 4 8 2 4 -4 -11 -18 -26 -14 -25 6 0 10 3 12 6 4 2 -6 10 -9 15 -6z
m-1244 -8 c-2 -6 -10 -13 -16 -14 -7 -1 -8 0 -2 3 5 2 8 9 4 14 -3 5 0 9 6 9
7 0 10 -5 8 -12z m182 -14 c0 -14 -4 -23 -10 -19 -5 3 -10 15 -10 26 0 10 5
19 10 19 6 0 10 -12 10 -26z m320 16 c0 -5 -2 -10 -4 -10 -3 0 -8 5 -11 10 -3
6 -1 10 4 10 6 0 11 -4 11 -10z m335 -10 c3 -5 -1 -10 -9 -10 -8 0 -18 5 -21
10 -3 6 1 10 9 10 8 0 18 -4 21 -10z m160 0 c3 -5 1 -10 -4 -10 -6 0 -11 5
-11 10 0 6 2 10 4 10 3 0 8 -4 11 -10z m180 -20 c-3 -5 -14 -10 -23 -10 -15 0
-15 2 -2 10 20 13 33 13 25 0z m-1912 -7 c-7 -2 -21 -2 -30 0 -10 3 -4 5 12 5
17 0 24 -2 18 -5z m161 -1 c3 -5 -1 -9 -9 -9 -8 0 -12 4 -9 9 3 4 7 8 9 8 2 0
6 -4 9 -8z m226 -2 c0 -5 -6 -10 -14 -10 -8 0 -18 5 -21 10 -3 6 3 10 14 10
12 0 21 -4 21 -10z m105 0 c3 -5 1 -10 -4 -10 -6 0 -11 5 -11 10 0 6 2 10 4
10 3 0 8 -4 11 -10z m535 0 c0 -5 -5 -10 -11 -10 -5 0 -7 5 -4 10 3 6 8 10 11
10 2 0 4 -4 4 -10z m-567 -7 c-7 -2 -19 -2 -25 0 -7 3 -2 5 12 5 14 0 19 -2
13 -5z m390 0 c-7 -2 -21 -2 -30 0 -10 3 -4 5 12 5 17 0 24 -2 18 -5z m964 1
c-3 -3 -12 -4 -19 -1 -8 3 -5 6 6 6 11 1 17 -2 13 -5z"/>
<path d="M1625 6170 c-3 -5 -1 -10 4 -10 6 0 11 5 11 10 0 6 -2 10 -4 10 -3 0
-8 -4 -11 -10z"/>
<path d="M2404 5638 c-38 -18 -44 -50 -44 -233 l0 -175 -188 0 c-249 0 -232
17 -232 -231 l0 -186 26 -24 c25 -23 31 -24 210 -27 l184 -3 0 -175 c0 -189 8
-226 52 -238 13 -3 96 -6 186 -6 169 0 212 8 226 45 3 9 6 97 6 196 l0 179
178 0 c149 0 183 3 212 18 46 23 53 57 48 250 -4 150 -4 153 -31 180 l-27 27
-190 3 -190 3 0 174 c0 95 -3 181 -6 190 -15 37 -56 45 -231 44 -94 0 -177 -5
-189 -11z m352 -6 c-3 -5 5 -8 17 -8 15 1 22 -5 21 -16 -1 -10 2 -16 6 -13 16
10 20 -30 20 -196 0 -154 2 -169 18 -170 9 0 94 -1 187 -3 94 -1 178 -5 188
-10 31 -15 37 -51 37 -222 0 -167 -8 -211 -36 -200 -8 3 -14 1 -14 -4 0 -6
-68 -10 -174 -10 -96 0 -181 -3 -190 -6 -14 -5 -16 -31 -16 -189 0 -244 13
-229 -195 -233 -184 -4 -217 0 -234 31 -14 27 -21 367 -7 367 6 0 4 6 -2 13
-9 8 -71 13 -208 17 -179 5 -197 7 -210 24 -11 15 -14 59 -14 192 0 235 -17
218 229 222 l190 4 7 34 c3 19 4 43 1 54 -3 11 -1 20 5 20 5 0 6 5 2 11 -7 13
-6 224 3 257 3 13 15 27 27 32 27 11 349 13 342 2z"/>
<path d="M2520 5586 c0 -2 7 -6 15 -10 8 -3 15 -1 15 4 0 6 -7 10 -15 10 -8 0
-15 -2 -15 -4z"/>
<path d="M2620 5510 c0 -5 5 -10 10 -10 6 0 10 5 10 10 0 6 -4 10 -10 10 -5 0
-10 -4 -10 -10z"/>
<path d="M2520 5400 c0 -5 5 -10 11 -10 5 0 7 5 4 10 -3 6 -8 10 -11 10 -2 0
-4 -4 -4 -10z"/>
<path d="M2705 5390 c3 -5 8 -10 11 -10 2 0 4 5 4 10 0 6 -5 10 -11 10 -5 0
-7 -4 -4 -10z"/>
<path d="M2480 5349 c0 -5 5 -7 10 -4 6 3 10 8 10 11 0 2 -4 4 -10 4 -5 0 -10
-5 -10 -11z"/>
<path d="M2516 5340 c5 -8 9 -21 10 -28 2 -8 5 -17 8 -20 4 -3 5 4 3 16 -2 12
-9 28 -17 35 -10 10 -11 9 -4 -3z"/>
<path d="M2465 5310 c-3 -5 -1 -10 4 -10 6 0 11 5 11 10 0 6 -2 10 -4 10 -3 0
-8 -4 -11 -10z"/>
<path d="M2630 5310 c0 -5 5 -10 11 -10 5 0 7 5 4 10 -3 6 -8 10 -11 10 -2 0
-4 -4 -4 -10z"/>
<path d="M2870 5201 c0 -6 7 -8 16 -4 9 3 20 0 26 -8 8 -12 9 -11 5 1 -4 17
-47 27 -47 11z"/>
<path d="M2158 5193 c7 -3 16 -2 19 1 4 3 -2 6 -13 5 -11 0 -14 -3 -6 -6z"/>
<path d="M2970 5170 c0 -5 5 -10 10 -10 6 0 10 5 10 10 0 6 -4 10 -10 10 -5 0
-10 -4 -10 -10z"/>
<path d="M2375 5160 c-3 -5 -1 -10 4 -10 6 0 11 5 11 10 0 6 -2 10 -4 10 -3 0
-8 -4 -11 -10z"/>
<path d="M2415 5139 c-4 -6 -5 -12 -2 -15 2 -3 7 2 10 11 7 17 1 20 -8 4z"/>
<path d="M2588 5133 c7 -3 16 -2 19 1 4 3 -2 6 -13 5 -11 0 -14 -3 -6 -6z"/>
<path d="M2668 5133 c7 -3 16 -2 19 1 4 3 -2 6 -13 5 -11 0 -14 -3 -6 -6z"/>
<path d="M2870 5116 c0 -2 7 -9 15 -16 12 -10 15 -10 15 4 0 9 -7 16 -15 16
-8 0 -15 -2 -15 -4z"/>
<path d="M2970 5116 c0 -2 7 -7 16 -10 8 -3 12 -2 9 4 -6 10 -25 14 -25 6z"/>
<path d="M2167 5089 c7 -7 15 -10 18 -7 3 3 -2 9 -12 12 -14 6 -15 5 -6 -5z"/>
<path d="M2116 5078 c3 -5 10 -6 15 -3 13 9 11 12 -6 12 -8 0 -12 -4 -9 -9z"/>
<path d="M2358 5083 c6 -2 18 -2 25 0 6 3 1 5 -13 5 -14 0 -19 -2 -12 -5z"/>
<path d="M2637 5069 c7 -7 15 -10 18 -7 3 3 -2 9 -12 12 -14 6 -15 5 -6 -5z"/>
<path d="M3011 5063 c0 -6 -4 -20 -7 -30 -5 -14 -4 -15 5 -7 7 7 11 20 8 30
-3 11 -5 14 -6 7z"/>
<path d="M2652 5041 c-11 -7 -11 -9 2 -14 10 -4 16 -1 16 8 0 17 -1 17 -18 6z"/>
<path d="M3070 5041 c0 -5 9 -11 20 -14 24 -6 27 8 4 17 -21 8 -24 8 -24 -3z"/>
<path d="M3129 5033 c7 -15 17 -20 28 -16 14 5 14 8 2 11 -7 3 -20 10 -28 16
-12 9 -12 8 -2 -11z"/>
<path d="M2115 5020 c3 -5 10 -10 16 -10 5 0 9 5 9 10 0 6 -7 10 -16 10 -8 0
-12 -4 -9 -10z"/>
<path d="M2342 4986 c7 -8 15 -12 17 -11 5 6 -10 25 -20 25 -5 0 -4 -6 3 -14z"/>
<path d="M2636 4983 c-6 -14 -5 -15 5 -6 7 7 10 15 7 18 -3 3 -9 -2 -12 -12z"/>
<path d="M2037 4959 c7 -7 15 -10 18 -7 3 3 -2 9 -12 12 -14 6 -15 5 -6 -5z"/>
<path d="M2460 4960 c-9 -6 -10 -10 -3 -10 6 0 15 5 18 10 8 12 4 12 -15 0z"/>
<path d="M2615 4940 c3 -5 8 -10 11 -10 2 0 4 5 4 10 0 6 -5 10 -11 10 -5 0
-7 -4 -4 -10z"/>
<path d="M2840 4930 c0 -5 5 -10 11 -10 5 0 7 5 4 10 -3 6 -8 10 -11 10 -2 0
-4 -4 -4 -10z"/>
<path d="M3051 4931 c-7 -5 -9 -11 -5 -14 5 -3 15 1 22 9 14 16 5 18 -17 5z"/>
<path d="M2095 4910 c3 -5 8 -10 11 -10 2 0 4 5 4 10 0 6 -5 10 -11 10 -5 0
-7 -4 -4 -10z"/>
<path d="M2518 4883 c7 -3 16 -2 19 1 4 3 -2 6 -13 5 -11 0 -14 -3 -6 -6z"/>
<path d="M2731 4877 c-1 -10 -5 -15 -11 -12 -5 3 -10 1 -10 -5 0 -6 -4 -8 -10
-5 -5 3 -7 0 -4 -9 5 -13 9 -12 26 4 11 10 18 24 15 32 -4 8 -6 7 -6 -5z"/>
<path d="M2845 4880 c-3 -5 -1 -10 4 -10 6 0 11 5 11 10 0 6 -2 10 -4 10 -3 0
-8 -4 -11 -10z"/>
<path d="M2500 4859 c0 -5 5 -7 10 -4 6 3 10 8 10 11 0 2 -4 4 -10 4 -5 0 -10
-5 -10 -11z"/>
<path d="M3197 4839 c-6 -24 5 -24 26 -1 15 16 15 18 -2 19 -11 1 -21 -7 -24
-18z"/>
<path d="M2555 4839 c-7 -10 28 -17 50 -9 16 6 14 8 -13 12 -18 2 -35 1 -37
-3z"/>
<path d="M2838 4843 c7 -3 16 -2 19 1 4 3 -2 6 -13 5 -11 0 -14 -3 -6 -6z"/>
<path d="M2481 4824 c0 -11 3 -14 6 -6 3 7 2 16 -1 19 -3 4 -6 -2 -5 -13z"/>
<path d="M2400 4813 c8 -3 21 -10 28 -16 8 -7 12 -5 12 7 0 11 -8 16 -27 15
-16 0 -22 -3 -13 -6z"/>
<path d="M2670 4800 c0 -5 5 -10 11 -10 5 0 7 5 4 10 -3 6 -8 10 -11 10 -2 0
-4 -4 -4 -10z"/>
<path d="M3038 4803 c7 -3 16 -2 19 1 4 3 -2 6 -13 5 -11 0 -14 -3 -6 -6z"/>
<path d="M3078 4803 c6 -2 18 -2 25 0 6 3 1 5 -13 5 -14 0 -19 -2 -12 -5z"/>
<path d="M2571 4754 c0 -11 3 -14 6 -6 3 7 2 16 -1 19 -3 4 -6 -2 -5 -13z"/>
<path d="M2648 4733 c7 -3 16 -2 19 1 4 3 -2 6 -13 5 -11 0 -14 -3 -6 -6z"/>
<path d="M2410 4700 c-12 -8 -11 -10 8 -10 12 0 22 5 22 10 0 13 -11 13 -30 0z"/>
<path d="M2505 4650 c4 -6 11 -8 16 -5 14 9 11 15 -7 15 -8 0 -12 -5 -9 -10z"/>
<path d="M2683 4625 c0 -8 4 -12 9 -9 4 3 8 9 8 15 0 5 -4 9 -8 9 -5 0 -9 -7
-9 -15z"/>
<path d="M2573 4623 c-7 -2 -13 -12 -13 -21 0 -13 2 -13 13 3 9 11 19 15 27
10 9 -5 11 -4 6 3 -8 13 -13 14 -33 5z"/>
<path d="M2626 4583 c-6 -14 -5 -15 5 -6 7 7 10 15 7 18 -3 3 -9 -2 -12 -12z"/>
<path d="M2410 4500 c0 -5 5 -10 11 -10 5 0 7 5 4 10 -3 6 -8 10 -11 10 -2 0
-4 -4 -4 -10z"/>
<path d="M2588 4493 c7 -3 16 -2 19 1 4 3 -2 6 -13 5 -11 0 -14 -3 -6 -6z"/>
<path d="M2390 4476 c0 -2 7 -7 16 -10 8 -3 12 -2 9 4 -6 10 -25 14 -25 6z"/>
<path d="M2418 4443 c7 -3 16 -2 19 1 4 3 -2 6 -13 5 -11 0 -14 -3 -6 -6z"/>
<path d="M2685 4420 c-3 -6 1 -7 9 -4 18 7 21 14 7 14 -6 0 -13 -4 -16 -10z"/>
<path d="M2698 4393 c7 -3 16 -2 19 1 4 3 -2 6 -13 5 -11 0 -14 -3 -6 -6z"/>
<path d="M2755 4380 c4 -6 11 -8 16 -5 14 9 11 15 -7 15 -8 0 -12 -5 -9 -10z"/>
<path d="M2435 4370 c3 -5 11 -10 16 -10 6 0 7 5 4 10 -3 6 -11 10 -16 10 -6
0 -7 -4 -4 -10z"/>
<path d="M4362 5648 l3 -473 98 -3 97 -3 0 201 0 200 205 0 205 0 0 -200 0
-201 98 3 97 3 3 473 2 472 -100 0 -100 0 0 -190 0 -190 -205 0 -205 0 0 190
0 190 -100 0 -100 0 2 -472z"/>
<path d="M5332 5648 l3 -473 220 1 c239 0 296 9 396 59 150 77 231 249 216
465 -15 213 -122 352 -311 400 -68 17 -112 20 -303 20 l-223 0 2 -472z m488
285 c54 -24 101 -68 124 -117 65 -138 28 -351 -75 -422 -62 -43 -105 -53 -226
-54 l-113 0 0 311 0 311 123 -4 c94 -3 132 -9 167 -25z"/>
<path d="M6094 4865 c-24 -36 -6 -75 34 -75 35 0 52 16 52 50 0 53 -57 69 -86
25z"/>
<path d="M4360 4633 c-51 -136 -96 -254 -98 -261 -3 -10 7 -12 44 -10 l49 3
20 58 20 57 115 0 116 0 19 -56 c10 -31 24 -58 31 -61 6 -2 30 -3 52 -1 l40 3
-97 255 -98 255 -60 3 -59 3 -94 -248z m230 -65 c0 -4 -36 -8 -80 -8 -44 0
-80 4 -80 8 0 7 42 124 70 197 12 29 13 28 51 -79 21 -60 39 -113 39 -118z"/>
<path d="M6718 4839 c-35 -18 -38 -23 -38 -64 0 -41 -2 -45 -25 -45 -22 0 -25
-4 -25 -35 0 -31 3 -35 25 -35 l25 0 0 -105 c0 -129 14 -169 64 -190 37 -16
83 -19 110 -9 10 4 16 18 16 40 0 32 -2 34 -25 28 -16 -4 -34 0 -50 10 -24 16
-25 21 -25 121 l0 105 45 0 c45 0 45 0 45 35 0 35 0 35 -45 35 l-45 0 0 65 c0
36 -3 65 -7 65 -5 -1 -25 -10 -45 -21z"/>
<path d="M8381 4841 c-31 -16 -35 -23 -35 -62 -1 -40 -3 -44 -28 -47 -25 -3
-28 -8 -28 -38 0 -31 2 -34 30 -34 l30 0 0 -120 c0 -117 1 -120 28 -151 23
-26 38 -32 78 -36 58 -5 72 3 80 45 6 31 6 32 -25 26 -21 -4 -39 -1 -56 10
-24 16 -25 20 -25 121 l0 104 46 3 c45 3 47 5 50 36 l4 32 -50 0 -50 0 0 65
c0 36 -3 65 -7 65 -5 -1 -23 -9 -42 -19z"/>
<path d="M4945 4729 c-11 -6 -28 -21 -37 -33 l-18 -21 0 28 c0 25 -3 27 -40
27 l-40 0 0 -265 0 -265 40 0 40 0 0 95 c0 52 2 95 4 95 3 0 21 -10 41 -21 76
-45 186 -4 226 85 39 86 14 211 -53 260 -33 23 -132 33 -163 15z m95 -74 c39
-20 50 -43 50 -105 0 -86 -32 -124 -102 -122 -41 1 -68 20 -84 57 -18 44 -18
89 1 125 30 57 79 74 135 45z"/>
<path d="M5363 4716 c-37 -31 -43 -32 -43 -6 0 17 -7 20 -40 20 l-40 0 2 -262
3 -263 39 0 38 0 0 93 c0 50 0 92 2 92 1 0 19 -9 41 -20 121 -62 244 29 245
180 0 65 -30 133 -72 164 -18 12 -49 21 -86 24 -51 4 -62 1 -89 -22z m114 -66
c53 -32 66 -125 26 -187 -33 -50 -127 -47 -160 4 -23 35 -23 121 0 157 32 47
83 58 134 26z"/>
<path d="M5765 4727 c-61 -28 -115 -114 -115 -182 0 -112 104 -205 215 -193
170 20 229 243 92 352 -31 25 -48 31 -100 33 -38 2 -74 -2 -92 -10z m132 -77
c60 -36 69 -141 16 -194 -28 -28 -86 -36 -124 -16 -32 18 -52 68 -47 122 9 91
82 133 155 88z"/>
<path d="M6372 4715 c-36 -30 -45 -31 -37 -5 6 18 2 20 -39 20 l-46 0 0 -185
0 -185 45 0 45 0 0 130 c0 126 1 132 25 155 15 16 36 25 55 25 19 0 40 -9 55
-25 24 -23 25 -29 25 -155 l0 -130 46 0 46 0 -4 148 c-2 94 -8 155 -16 170
-35 63 -145 83 -200 37z"/>
<path d="M7060 4733 c-8 -3 -25 -15 -37 -26 l-23 -20 0 21 c0 19 -6 22 -40 22
l-40 0 0 -185 0 -185 39 0 39 0 4 129 c3 121 5 131 27 155 29 31 60 33 92 7
23 -18 24 -24 24 -155 l0 -136 43 0 42 0 0 130 c0 126 1 132 25 155 13 14 31
25 40 25 20 0 57 -19 67 -34 4 -6 8 -71 8 -143 l0 -133 46 0 46 0 -4 153 c-3
165 -11 192 -64 215 -52 24 -130 9 -164 -33 -12 -15 -15 -14 -35 11 -17 21
-31 27 -71 30 -27 2 -56 1 -64 -3z"/>
<path d="M7615 4724 c-68 -35 -104 -97 -105 -178 -1 -173 211 -264 321 -139
l31 36 -33 18 c-34 17 -34 17 -60 -7 -38 -36 -101 -34 -140 5 -16 16 -29 39
-29 50 0 20 5 21 135 21 l135 0 0 28 c0 74 -48 147 -113 171 -41 16 -107 13
-142 -5z m140 -79 c14 -13 25 -33 25 -45 0 -19 -6 -20 -90 -20 -103 0 -112 10
-61 61 38 38 91 40 126 4z"/>
<path d="M8065 4730 c-12 -4 -27 -15 -34 -24 -18 -22 -30 -20 -24 4 5 18 0 20
-41 20 l-46 0 0 -185 0 -185 45 0 45 0 0 130 c0 126 1 132 25 155 30 31 73 32
109 4 26 -20 26 -22 26 -155 l0 -134 45 0 45 0 -1 133 c0 153 -10 192 -58 224
-35 24 -96 30 -136 13z"/>
<path d="M8660 4733 c-8 -3 -27 -17 -42 -31 -22 -20 -28 -35 -28 -69 0 -59 28
-86 119 -113 60 -18 72 -25 77 -47 17 -65 -102 -72 -136 -8 -12 22 -13 22 -41
6 -36 -20 -37 -40 -1 -73 50 -49 129 -62 196 -34 45 19 66 52 66 104 0 36 -5
49 -30 72 -17 16 -45 32 -63 35 -70 16 -107 36 -107 60 0 26 17 35 66 35 23 0
38 -6 46 -20 15 -23 37 -26 62 -7 16 11 17 17 7 36 -20 37 -70 61 -126 60 -27
0 -57 -3 -65 -6z"/>
<path d="M6090 4545 l0 -185 45 0 45 0 0 185 0 185 -45 0 -45 0 0 -185z"/>
</g>
</svg>
